<?xml version="1.0" encoding="utf-8"?>
<!-- Generator: Adobe Illustrator 24.0.2, SVG Export Plug-In . SVG Version: 6.00 Build 0)  -->
<svg version="1.1" id="Layer_1" xmlns="http://www.w3.org/2000/svg" xmlns:xlink="http://www.w3.org/1999/xlink" x="0px" y="0px"
	 viewBox="0 0 26 26" style="enable-background:new 0 0 26 26;" xml:space="preserve">
<style type="text/css">
	.st0{fill-rule:evenodd;clip-rule:evenodd;}
	.st1{fill:none;stroke:#000000;stroke-miterlimit:10;}
</style>
<path class="st0" d="M21.7,16.6c-0.3,2.2-1.4,2.5-2.9,2.6c-1.1,0-2.2,0-3.3,0c0-0.3-0.1-0.6-0.1-1c0.7,0,1.4,0,2,0
	c1.4-0.1,2-0.6,2-2.2l0.1-3.1c0-1.7,0.2-3.6-1.7-3.9c-1.3-0.2-2.7,0.1-4.1,0.2c-0.3,0-0.5,0.1-0.8,0.2l1.1,0.8l-0.9,0.8h5.4v1h-3.2
	v1.2h3.2V14h-3.2v2.1c0.5-0.1,1-0.2,1.5-0.3c-0.2-0.3-0.4-0.5-0.5-0.8c0.4-0.2,0.8-0.3,1.2-0.5c1,0.6,1.4,1.4,1.1,2.4
	c-0.4,0.3-0.8,0.6-1.1,1c-0.2-0.3-0.4-0.7-0.6-1c-5.9,2.1-8.3,1.4-7.3-2.1h2.1c0,1.4,0.3,1.6,1.1,1.7c0,0,0.1,0,0.1,0V14H9.8v-0.9
	H13V12h-0.6v-0.2L11,13l-1.1-0.6l2.2-2.8c-1,0.4-1.7,1-2.3,1.7c-0.1,0.2-0.2,0.4-0.3,0.6c-0.6-0.4-1.1-0.8-1.7-1.2
	c0.9-1.4,1.8-2.7,2.7-4.1c0.8,0.2,1.5,0.5,2.3,0.7c-0.2,0.4-0.4,0.8-0.5,1.2c3.6-1.6,9.2-1.8,9.5,1.8C22,12.7,21.9,14.7,21.7,16.6z
	 M7.2,9.9c-0.9,0-1.6-0.7-1.6-1.5c0-0.8,0.7-1.5,1.6-1.5c0.9,0,1.6,0.7,1.6,1.5C8.8,9.2,8.1,9.9,7.2,9.9z M4.7,11.6
	c0.4-0.4,0.8-0.9,1.1-1.3c3.1,1.8,3.5,3.4,2.4,5.4c-0.8,1.4-1.1,2.5-1.7,3.6c-0.9-0.6-1.7-1.2-2.6-1.8c0.9-0.7,2-1.3,2.8-2.2
	C8.4,13.8,6.7,12.6,4.7,11.6z"/>
<circle class="st1" cx="13" cy="13" r="12.3"/>
</svg>
