<?xml version="1.0" encoding="utf-8"?>
<!-- Generator: Adobe Illustrator 24.0.2, SVG Export Plug-In . SVG Version: 6.00 Build 0)  -->
<svg version="1.1" id="Layer_1" xmlns="http://www.w3.org/2000/svg" xmlns:xlink="http://www.w3.org/1999/xlink" x="0px" y="0px"
	 viewBox="0 0 170 60" style="enable-background:new 0 0 170 60;" xml:space="preserve">
<style type="text/css">
	.st0{fill:#FFFFFF;}
</style>
<path class="st0" d="M17,0.8c-0.6,0.3-1.3,1.3-1.6,2.3c-0.6,1.6-1,2.3-1,10c0,6.2,0,7.1,0.3,7.5c0.3,1.3,1,1.9,1.9,2.3
	c1,0.6,1.6,0.6,8.4,0.6s6.8,0,8.1,0.6c0.6,0.3,1.3,1,1.6,1.6c0.3,0.6,0.3,4.2,0,4.5c0,0-1.3,0.6-2.6,1.3c-4.2,1.9-4.9,2.6-4.9,2.6
	c-0.3,0.3,0,0.6,0.3,0.6c0.3,0,1,0,2.3-0.3l1-0.3c0.3,0,0.6,0,1-0.3c1.6-0.3,2.6-0.3,2.9-0.3c0,0,0,2.9,0,12.6c0,10,0,12.6,0,12.6
	c0.3,0.3,0.6,0.3,1,0c0,0,0.3-0.6,0.3-1.3c0.3-1,1-2.9,1.3-4.2c0-0.3,0.3-1.3,0.6-1.9s0.3-1.3,0.6-1.3c0,0,0.3,0,1,0
	c1,0,1,0,1.3,1.6c0.3,1,1.3,3.9,1.3,4.5c0,0.3,0.3,1,0.6,1.6c0.3,0.6,0.3,1.3,0.6,1.3h0.3h0.3V46.5c0-7.1,0-12.6,0-12.6
	s1.6,0.3,3.6,0.6c0.3,0,1,0,1.3,0.3c0.3,0,1,0,1,0.3c0,0.3,0.6,0,1,0.3c0.6,0,1,0,1-0.6c0-0.3,0.3,0-5.2-2.9
	c-1.3-0.6-2.3-1.3-2.3-1.3s0-1,0-1.9c0-1.3,0-1.9,0.3-2.3c0.3-1,1-1.6,2.3-1.9c1-0.3,1.3-0.3,7.5-0.3c6.8,0,7.5,0,8.7-0.6
	c1-0.3,1.6-1.3,1.9-2.3c0.3-1,0.3-13.9,0-15.5c-0.3-1.9-0.6-2.9-1.6-3.6c-1.3-1.3-2.9-0.6-4.5,1.9c-0.3,0.6-2.3,2.6-3.2,3.2
	c-1.3,1-2.9,1.9-4.5,2.3c-1.6-0.3-1.9-0.3-11.7-0.3h-9.4l-1-0.3c-2.6-0.6-4.5-1.9-7.8-5.8c-1-1-1.6-1.6-2.3-1.9S17.6,0.8,17,0.8
	L17,0.8z M23.8,9.9C23.8,9.9,23.8,10.2,23.8,9.9c-0.3,0.3-0.6,1.6-1,1.9c0,0.3-0.3,0.6-0.3,1c-0.3,0.6,0,4.2,0,5.2
	c0.3,1.3,0.6,1.6,1,2.3c0,0.3,0.3,0.6,0.3,0.6c0,0.3-1,0-1.9-0.3c-1.3-0.6-2.6-1.9-2.9-3.6c-0.3-1-0.3-2.6,0-3.2
	c0.3-1.3,1.6-2.6,2.9-3.2C22.8,9.9,23.8,9.9,23.8,9.9L23.8,9.9z M26,9.9c1,0.3,1.6,0.6,2.3,1.3c1,1.3,1.6,2.6,1.6,4.2
	s-0.3,2.6-1.6,3.9c-1,1-1.9,1.3-2.9,1.6h-0.6l0.3-0.3c0.3-0.6,0.6-1.3,0.6-2.3C26,17,26,13.8,26,12.8c-0.3-1-0.6-1.9-1-2.6
	c0-0.3-0.3-0.3-0.3-0.3C25.1,9.9,25.4,9.9,26,9.9z M54.2,9.9c0,0,0,0.3-0.3,0.3c-0.3,0.6-0.6,1.9-1,3.9c0,1,0,1.3,0,2.6
	c0.3,1.9,0.3,2.9,1,3.6l0.3,0.3h-0.6c-1.3-0.3-3.2-1.6-3.9-2.9c-1-1.6-1-3.6,0-5.2c0.6-1.3,1.6-1.9,3.2-2.6
	C53.9,9.9,54.2,9.9,54.2,9.9z M56.5,10.2c1.9,0.6,2.9,1.6,3.6,3.6c0.3,0.6,0.3,1,0.3,1.6c0,1.3-0.3,1.9-1,2.9
	c-0.6,1-1.3,1.6-2.3,1.9c-0.6,0.3-1.9,0.6-1.9,0.3c0,0,0-0.3,0.3-0.6c0.3-0.6,0.6-1.3,0.6-2.3c0.3-1,0.3-3.9,0-4.9
	c-0.3-1.6-0.6-2.3-1-2.9C55.5,9.9,55.5,9.6,56.5,10.2L56.5,10.2z M41.3,14.1c0.3,0.3,0,0.6-0.6,1.6s-1,1-1.3,1s-1.3-1.6-1.6-1.9
	v-0.3c0.3-0.3,0.3-0.3,1.6-0.3C40.6,14.1,40.9,14.1,41.3,14.1z M40.3,19c0.3,1.3,0.6,1.9,1.3,2.3c1,0.3,2.3,0.3,3.2-0.3
	c0.3-0.3,0.6-0.3,0.6,0s-0.3,0.6-1,1c-0.3,0.3-0.6,0.3-1.6,0.3s-1,0-1.6-0.3c-0.6-0.3-0.6-0.3-1-1c-0.6-0.6-0.6-0.6-1-0.3
	c-1,1-1.3,1.3-2.6,1.6c-1,0-2.3,0-2.9-0.6c-0.3,0-0.3-1,0-1c0,0,0.3,0,0.6,0.3c1,0.6,2.6,0.6,3.2,0.3c0.6-0.3,1.6-1.6,1.6-2.6
	c0-0.6,0-0.6,0.6-0.6h0.6L40.3,19z"/>
<g>
	<g>
		<path class="st0" d="M130.6,14.5h-3v3.9h3c2.4,0,4.4,1.7,4.8,4l-7,5.3l2.3,3.1l4.8-3.6v6l-7.1,5.3l2.3,3.1l4.8-3.6v3.4
			c0,3.4-1.6,6.7-4.4,8.7l-2.3,1.7l2.2,3.1l2.3-1.7c3.7-2.7,6-7.2,6-11.8V23.3C139.3,18.4,135.4,14.5,130.6,14.5z"/>
	</g>
	<g>
		<polygon class="st0" points="165.1,17.2 165.1,13.7 161.3,13.7 161.3,17.2 150.4,17.2 150.4,13.7 146.6,13.7 146.6,17.2 
			142.1,17.2 142.1,21 146.6,21 146.6,24.8 150.4,24.8 150.4,21 161.3,21 161.3,24.8 165.1,24.8 165.1,21 169.6,21 169.6,17.2 		"/>
	</g>
	<g>
		<path class="st0" d="M142.1,47.1c0,4.1,3.3,7.4,7.3,7.4h12.9c4,0,7.3-3.3,7.3-7.4V27.4h-27.5V47.1z M145.9,47.1v-4.3h8v7.8h-4.5
			C147.5,50.6,145.9,49,145.9,47.1z M162.3,50.6h-4.5v-7.8h8v4.3C165.8,49,164.2,50.6,162.3,50.6z M165.8,38.9h-8v-7.7h8V38.9z
			 M153.9,31.3v7.7h-8v-7.7H153.9z"/>
	</g>
	<g>
		<path class="st0" d="M103.5,27.2v-8.9h16.4v-3.9H83.1v3.9h16.4v8.9c0,0.6,0,1.3-0.1,1.9H81.3V33h17.6c-2.1,8.7-8.7,15.8-17.6,18.1
			l1,3.7c9-2.4,16.1-9,19.3-17.4c3.2,8.4,10.2,15.1,19.3,17.4l1-3.7c-8.9-2.3-15.5-9.4-17.6-18.1h17.6v-3.9h-18.2
			C103.5,28.5,103.5,27.9,103.5,27.2z"/>
	</g>
</g>
</svg>
